Goodnight For Justice 2011 DVDRip XviD-VoMiT
Video: XVID | 640 x 352 | 935 kbps | 23.976 fps
Audio: English | MP3 VBR Stereo | 160 kb/s | Channels 2.0

Plot: When john goodnight was a boy he watched in the weeds as his entire family was 
killed in a ruthless outlaw attack. Now as a circuit judge of the western territories 
goodnight travels the west protecting the innocent from injustice.
 
http://www.imdb.com/title/tt1716743/

Goodnight For Justice 2011 DVDRip XviD-VoMiT

Format : AVI
Format/Info : Audio Video Interleave
File size : 701 MiB
Duration : 1h 28mn
Overall bit rate : 1 112 Kbps
Writing application : VirtualDubMod 1.5.10.2 (build 2540/release)
Writing library : VirtualDubMod build 2540/release

Video
ID : 0
Format : MPEG-4 Visual
Format profile : Advanced Simple@L5
Format settings, BVOP : Yes
Format settings, QPel : No
Format settings, GMC : No warppoints
Format settings, Matrix : Default (H.263)
Codec ID : XVID
Codec ID/Hint : XviD
Duration : 1h 28mn
Bit rate : 936 Kbps
Width : 640 pixels
Height : 352 pixels
Display aspect ratio : 16:9
Frame rate : 23.976 fps
Color space : YUV
Chroma subsampling : 4:2:0
Bit depth : 8 bits
Scan type : Progressive
Bits/(Pixel*Frame) : 0.173
Stream size : 589 MiB (84%)
Writing library : XviD 63

Audio
ID : 1
Format : MPEG Audio
Format version : Version 1
Format profile : Layer 3
Mode : Joint stereo
Mode extension : MS Stereo
Codec ID : 55
Codec ID/Hint : MP3
Duration : 1h 28mn
Bit rate mode : Variable
Bit rate : 160 Kbps
Channel(s) : 2 channels
Sampling rate : 48.0 KHz
Stream size : 103 MiB (15%)
Alignment : Aligned on interleaves
Interleave, duration : 24 ms (0.58 video frame)
Interleave, preload duration : 173 ms
Writing library : LAME3.90.
Encoding settings : -m j -V 4 -q 2 -lowpass 18 --abr 160